<svg width="832" height="832" viewBox="0 0 832 832" fill="none" xmlns="http://www.w3.org/2000/svg">
<path d="M710.896 712.242C630.16 792.081 531.599 832 415.214 832C298.828 832 200.267 792.081 119.531 712.242C39.8437 631.354 0 532.606 0 416C0 299.394 39.8437 201.172 119.531 121.333C200.267 40.4445 298.828 0 415.214 0C531.599 0 630.16 40.4445 710.896 121.333C791.632 201.172 832 299.394 832 416C832 532.606 791.632 631.354 710.896 712.242ZM262.654 572C303.546 612.97 354.4 633.455 415.214 633.455C476.028 633.455 526.881 612.97 567.773 572C608.665 531.03 629.112 479.03 629.112 416C629.112 352.97 608.665 300.97 567.773 260C526.881 219.03 476.028 198.545 415.214 198.545C354.4 198.545 303.546 219.03 262.654 260C222.81 300.97 202.888 352.97 202.888 416C202.888 479.03 222.81 531.03 262.654 572Z" fill="#1B1B1B"/>
</svg>
