<svg width="29" height="29" viewBox="0 0 29 29" fill="none" xmlns="http://www.w3.org/2000/svg">
<g filter="url(#filter0_d_26_1651)">
<path d="M12.5101 7.45042C9.7529 7.45042 7.52889 9.67492 7.52889 12.4328C7.52889 15.1906 9.7529 17.4151 12.5101 17.4151C15.2674 17.4151 17.4914 15.1906 17.4914 12.4328C17.4914 9.67492 15.2674 7.45042 12.5101 7.45042ZM12.5101 15.672C10.7283 15.672 9.27168 14.2193 9.27168 12.4328C9.27168 10.6462 10.724 9.1936 12.5101 9.1936C14.2963 9.1936 15.7486 10.6462 15.7486 12.4328C15.7486 14.2193 14.292 15.672 12.5101 15.672ZM18.857 7.24662C18.857 7.89272 18.3368 8.40873 17.6952 8.40873C17.0492 8.40873 16.5333 7.88838 16.5333 7.24662C16.5333 6.60485 17.0535 6.0845 17.6952 6.0845C18.3368 6.0845 18.857 6.60485 18.857 7.24662ZM22.1562 8.42608C22.0825 6.86936 21.727 5.49043 20.5868 4.35433C19.4509 3.21823 18.0723 2.86266 16.516 2.7846C14.9119 2.69354 10.1041 2.69354 8.5 2.7846C6.94797 2.85832 5.56934 3.21389 4.42916 4.34999C3.28898 5.48609 2.93782 6.86503 2.85978 8.42174C2.76874 10.0262 2.76874 14.8351 2.85978 16.4395C2.93348 17.9962 3.28898 19.3751 4.42916 20.5112C5.56934 21.6473 6.94363 22.0029 8.5 22.081C10.1041 22.172 14.9119 22.172 16.516 22.081C18.0723 22.0072 19.4509 21.6517 20.5868 20.5112C21.7226 19.3751 22.0781 17.9962 22.1562 16.4395C22.2472 14.8351 22.2472 10.0305 22.1562 8.42608ZM20.0839 18.161C19.7457 19.0109 19.0911 19.6657 18.2371 20.0082C16.9582 20.5156 13.9235 20.3985 12.5101 20.3985C11.0968 20.3985 8.0578 20.5112 6.78322 20.0082C5.93351 19.67 5.27888 19.0152 4.93639 18.161C4.42916 16.8818 4.54621 13.8464 4.54621 12.4328C4.54621 11.0192 4.4335 7.97944 4.93639 6.70458C5.27454 5.85468 5.92917 5.1999 6.78322 4.85734C8.06214 4.34999 11.0968 4.46707 12.5101 4.46707C13.9235 4.46707 16.9625 4.35433 18.2371 4.85734C19.0868 5.19556 19.7414 5.85034 20.0839 6.70458C20.5911 7.98378 20.4741 11.0192 20.4741 12.4328C20.4741 13.8464 20.5911 16.8861 20.0839 18.161Z" fill="white"/>
</g>
<defs>
<filter id="filter0_d_26_1651" x="0.791504" y="0.716309" width="27.4331" height="27.4331" filterUnits="userSpaceOnUse" color-interpolation-filters="sRGB">
<feFlood flood-opacity="0" result="BackgroundImageFix"/>
<feColorMatrix in="SourceAlpha" type="matrix" values="0 0 0 0 0 0 0 0 0 0 0 0 0 0 0 0 0 0 127 0" result="hardAlpha"/>
<feOffset dx="2" dy="2"/>
<feGaussianBlur stdDeviation="2"/>
<feColorMatrix type="matrix" values="0 0 0 0 0 0 0 0 0 0 0 0 0 0 0 0 0 0 0.25 0"/>
<feBlend mode="normal" in2="BackgroundImageFix" result="effect1_dropShadow_26_1651"/>
<feBlend mode="normal" in="SourceGraphic" in2="effect1_dropShadow_26_1651" result="shape"/>
</filter>
</defs>
</svg>
