<svg width="38" height="28" viewBox="0 0 38 28" fill="none" xmlns="http://www.w3.org/2000/svg">
<path fill-rule="evenodd" clip-rule="evenodd" d="M28.5 27.1001C29.5493 27.1001 30.4 26.2494 30.4 25.2001C30.4 24.1508 29.5493 23.3001 28.5 23.3001L9.5 23.3001C8.45066 23.3001 7.6 24.1508 7.6 25.2001C7.6 26.2494 8.45066 27.1001 9.5 27.1001L28.5 27.1001ZM38 13.8001C38 14.8494 37.1493 15.7001 36.1 15.7001L1.9 15.7001C0.850658 15.7001 0 14.8494 0 13.8001C0 12.7508 0.850658 11.9001 1.9 11.9001L36.1 11.9001C37.1493 11.9001 38 12.7508 38 13.8001ZM30.4 2.4001C30.4 3.44944 29.5493 4.3001 28.5 4.3001L9.5 4.3001C8.45066 4.3001 7.6 3.44944 7.6 2.4001C7.6 1.35076 8.45066 0.500099 9.5 0.500099L28.5 0.500099C29.5493 0.500099 30.4 1.35076 30.4 2.4001Z" fill="#C3C1C1"/>
</svg>
